Coordinates
version=1
nRows=13
nColumns=40
inDegrees=yes
endheader
time	pelvis_tilt	pelvis_list	pelvis_rotation	pelvis_tx	pelvis_ty	pelvis_tz	hip_flexion_r	hip_adduction_r	hip_rotation_r	knee_angle_r	knee_angle_r_beta	ankle_angle_r	subtalar_angle_r	mtp_angle_r	hip_flexion_l	hip_adduction_l	hip_rotation_l	knee_angle_l	knee_angle_l_beta	ankle_angle_l	subtalar_angle_l	mtp_angle_l	lumbar_extension	lumbar_bending	lumbar_rotation	arm_flex_r	arm_add_r	arm_rot_r	elbow_flex_r	pro_sup_r	wrist_flex_r	wrist_dev_r	arm_flex_l	arm_add_l	arm_rot_l	elbow_flex_l	pro_sup_l	wrist_flex_l	wrist_dev_l
1760624596.00768495	     13.58879074	      0.21715705	      0.90247421	      0.18671463	      0.85788317	      0.00357490	     80.00000000	     -7.00000000	      0.00000000	     80.00000000	      1.39626340	      0.00000000	      0.00000000	      0.00000000	     80.00000000	     -7.00000000	      0.00000000	     80.00000000	      1.39626340	      0.00000000	      0.00000000	      0.00000000	    -21.90079684	     -1.00079815	    -10.62181457	     15.09989042	      1.08206639	     54.71618462	      0.00000000	     12.40137143	    -70.00000021	    -24.27425483	    -41.82868056	    -19.08123797	    -78.71965731	     92.04043318	    179.99984796	     70.00000021	     35.00000010
1760624596.01768494	     13.58417675	      0.20495905	      0.87707040	      0.18674133	      0.85779715	      0.00365530	     80.00000000	     -7.00000000	      0.00000000	     80.00000000	      1.39626340	      0.00000000	      0.00000000	      0.00000000	     80.00000000	     -7.00000000	      0.00000000	     80.00000000	      1.39626340	      0.00000000	      0.00000000	      0.00000000	    -21.86227339	     -1.08226347	    -10.48275480	     15.05973303	      1.05439720	     54.84838119	      0.00000000	     12.32097648	    -70.00000021	    -24.27241034	    -41.13598244	    -18.67120788	    -77.89789176	     91.79554983	    179.99984796	     70.00000021	     35.00000010
1760624596.02768493	     13.59826401	      0.19771181	      0.87137289	      0.18691549	      0.85773858	      0.00368033	     80.00000000	     -7.00000000	      0.00000000	     80.00000000	      1.39626340	      0.00000000	      0.00000000	      0.00000000	     80.00000000	     -7.00000000	      0.00000000	     80.00000000	      1.39626340	      0.00000000	      0.00000000	      0.00000000	    -21.81804908	     -1.15968713	    -10.34355937	     14.98664100	      1.02579705	     54.97526733	      0.00000000	     12.23642776	    -70.00000021	    -24.27436210	    -40.46987683	    -18.28272740	    -77.01438436	     91.55178432	    179.99984796	     70.00000021	     35.00000010
1760624596.03768492	     13.55247200	      0.08948137	      0.69151997	      0.18705963	      0.85758194	      0.00409817	     80.00000000	     -7.00000000	      0.00000000	     80.00000000	      1.39626340	      0.00000000	      0.00000000	      0.00000000	     80.00000000	     -7.00000000	      0.00000000	     80.00000000	      1.39626340	      0.00000000	      0.00000000	      0.00000000	    -21.70248147	     -1.19932317	     -9.91422879	     14.86142384	      0.94657711	     55.22781771	      0.00000000	     12.01791628	    -70.00000021	    -24.31392648	    -39.62698420	    -17.85369534	    -76.17864954	     91.32272301	    179.99984796	     70.00000021	     35.00000010
1760624596.04768491	     13.57478971	      0.12700290	      0.81835136	      0.18714164	      0.85754235	      0.00378477	     80.00000000	     -7.00000000	      0.00000000	     80.00000000	      1.39626340	      0.00000000	      0.00000000	      0.00000000	     80.00000000	     -7.00000000	      0.00000000	     80.00000000	      1.39626340	      0.00000000	      0.00000000	      0.00000000	    -21.68240403	     -1.26322272	     -9.95092580	     14.81996175	      0.93601196	     55.32535869	      0.00000000	     11.94437594	    -70.00000021	    -24.33042754	    -38.94725481	    -17.41132745	    -75.40113006	     90.98800220	    179.99984796	     70.00000021	     35.00000010
1760624596.05768490	     13.58996949	      0.10285348	      0.80118918	      0.18723179	      0.85724792	      0.00394667	     80.00000000	     -7.00000000	      0.00000000	     80.00000000	      1.39626340	      0.00000000	      0.00000000	      0.00000000	     80.00000000	     -7.00000000	      0.00000000	     80.00000000	      1.39626340	      0.00000000	      0.00000000	      0.00000000	    -21.67969570	     -1.36684722	    -10.01581359	     14.86351002	      0.98063781	     55.35611471	      0.00000000	     11.92997811	    -70.00000021	    -24.33705385	    -38.60501191	    -16.76420587	    -74.77456066	     90.90742330	    179.99984796	     70.00000021	     35.00000010
1760624596.06768489	     13.63221776	      0.20147260	      0.92401063	      0.18722594	      0.85747811	      0.00349576	     80.00000000	     -7.00000000	      0.00000000	     80.00000000	      1.39626340	      0.00000000	      0.00000000	      0.00000000	     80.00000000	     -7.00000000	      0.00000000	     80.00000000	      1.39626340	      0.00000000	      0.00000000	      0.00000000	    -21.67504419	     -1.46677008	     -9.79721535	     14.70820899	      0.89550115	     55.46487923	      0.00000000	     11.85848336	    -70.00000021	    -24.34859512	    -37.64896164	    -16.55572058	    -73.69150814	     90.44189191	    179.99984796	     70.00000021	     35.00000010
1760624596.07768512	     13.65148980	      0.19103462	      0.85502062	      0.18732509	      0.85745955	      0.00358511	     80.00000000	     -7.00000000	      0.00000000	     80.00000000	      1.39626340	      0.00000000	      0.00000000	      0.00000000	     80.00000000	     -7.00000000	      0.00000000	     80.00000000	      1.39626340	      0.00000000	      0.00000000	      0.00000000	    -21.64647491	     -1.55613127	     -9.54255415	     14.62094147	      0.85672442	     55.57363180	      0.00000000	     11.77891744	    -70.00000021	    -24.35551127	    -36.91622193	    -16.10734390	    -72.84641699	     90.13775370	    179.99984796	     70.00000021	     35.00000010
1760624596.08768511	     13.66608862	      0.14682726	      0.81427684	      0.18742061	      0.85713682	      0.00385638	     80.00000000	     -7.00000000	      0.00000000	     80.00000000	      1.39626340	      0.00000000	      0.00000000	      0.00000000	     80.00000000	     -7.00000000	      0.00000000	     80.00000000	      1.39626340	      0.00000000	      0.00000000	      0.00000000	    -21.63836790	     -1.65411912	     -9.61027831	     14.68178758	      0.90452941	     55.60209701	      0.00000000	     11.76945574	    -70.00000021	    -24.36467686	    -36.65552956	    -15.46485282	    -72.26309190	     90.04300441	    179.99984796	     70.00000021	     35.00000010
1760624596.09768510	     13.70070851	      0.21011203	      0.89358510	      0.18742996	      0.85731895	      0.00357176	     80.00000000	     -7.00000000	      0.00000000	     80.00000000	      1.39626340	      0.00000000	      0.00000000	      0.00000000	     80.00000000	     -7.00000000	      0.00000000	     80.00000000	      1.39626340	      0.00000000	      0.00000000	      0.00000000	    -21.63829103	     -1.73932060	     -9.41041626	     14.55508694	      0.84270193	     55.71613610	      0.00000000	     11.70407610	    -70.00000021	    -24.38052868	    -35.88004905	    -15.20737468	    -71.15356586	     89.55188348	    179.99984796	     70.00000021	     35.00000010
1760624596.10768509	     13.72317411	      0.19127340	      0.83622633	      0.18750939	      0.85727587	      0.00373167	     80.00000000	     -7.00000000	      0.00000000	     80.00000000	      1.39626340	      0.00000000	      0.00000000	      0.00000000	     80.00000000	     -7.00000000	      0.00000000	     80.00000000	      1.39626340	      0.00000000	      0.00000000	      0.00000000	    -21.62698108	     -1.82331709	     -9.21966168	     14.49316809	      0.82103302	     55.83427489	      0.00000000	     11.63278045	    -70.00000021	    -24.41198845	    -35.32353606	    -14.78238179	    -70.28492697	     89.22824946	    179.99984796	     70.00000021	     35.00000010
1760624596.11768508	     13.75311659	      0.18242778	      0.83812191	      0.18753241	      0.85723004	      0.00377476	     80.00000000	     -7.00000000	      0.00000000	     80.00000000	      1.39626340	      0.00000000	      0.00000000	      0.00000000	     80.00000000	     -7.00000000	      0.00000000	     80.00000000	      1.39626340	      0.00000000	      0.00000000	      0.00000000	    -21.62393377	     -1.90511817	     -9.09625822	     14.44353734	      0.81278751	     55.93806588	      0.00000000	     11.56753087	    -70.00000021	    -24.44425716	    -34.71340887	    -14.31703227	    -69.52849525	     88.91776347	    179.99984796	     70.00000021	     35.00000010
1760624596.12768507	     13.80466153	      0.17021059	      0.82294081	      0.18774676	      0.85724390	      0.00388312	     80.00000000	     -7.00000000	      0.00000000	     80.00000000	      1.39626340	      0.00000000	      0.00000000	      0.00000000	     80.00000000	     -7.00000000	      0.00000000	     80.00000000	      1.39626340	      0.00000000	      0.00000000	      0.00000000	    -21.62435013	     -1.98622344	     -8.96542905	     14.37831066	      0.79975376	     56.05016753	      0.00000000	     11.49805899	    -70.00000021	    -24.48519886	    -34.18703508	    -13.87223808	    -68.72937037	     88.56174008	    179.99984796	     70.00000021	     35.00000010
